<svg xmlns="http://www.w3.org/2000/svg" xmlns:xlink="http://www.w3.org/1999/xlink" width="500" zoomAndPan="magnify" viewBox="0 0 375 374.999991" height="500" preserveAspectRatio="xMidYMid meet" version="1.0"><defs><g/><clipPath id="a0f99abeb1"><path d="M 134 124.605469 L 187.101562 124.605469 L 187.101562 171.527344 L 134 171.527344 Z M 134 124.605469 " clip-rule="nonzero"/></clipPath><clipPath id="ca84471b95"><path d="M 153 240.101562 L 171.144531 240.101562 L 171.144531 258.316406 L 153 258.316406 Z M 153 240.101562 " clip-rule="nonzero"/></clipPath></defs><path fill="#ed5b2d" d="M 74.683594 218.0625 C 78.46875 225.121094 83.410156 231.179688 89.15625 236.136719 C 92.324219 234.769531 96.007812 235.066406 98.917969 236.957031 C 101.925781 238.914062 103.570312 242.179688 103.597656 245.519531 C 110.628906 248.835938 118.234375 250.863281 126.023438 251.464844 L 127.640625 221.929688 L 101.144531 204.695312 L 74.683594 218.0625 " fill-opacity="1" fill-rule="nonzero"/><path fill="#ed5b2d" d="M 98.199219 238.054688 C 94.027344 235.339844 88.4375 236.511719 85.714844 240.671875 C 82.992188 244.832031 84.167969 250.402344 88.339844 253.117188 C 92.511719 255.832031 98.101562 254.660156 100.824219 250.5 C 103.546875 246.339844 102.371094 240.769531 98.199219 238.054688 " fill-opacity="1" fill-rule="nonzero"/><g clip-path="url(#a0f99abeb1)"><path fill="#f7b9a1" d="M 187.105469 158.121094 C 183.324219 151.066406 178.378906 145.007812 172.636719 140.050781 C 169.46875 141.417969 165.78125 141.121094 162.875 139.230469 C 159.867188 137.273438 158.21875 134.007812 158.195312 130.667969 C 151.160156 127.351562 143.554688 125.324219 135.765625 124.71875 L 134.152344 154.257812 L 160.648438 171.492188 L 187.105469 158.121094 " fill-opacity="1" fill-rule="nonzero"/></g><path fill="#f7b9a1" d="M 163.589844 138.132812 C 167.765625 140.847656 173.355469 139.675781 176.078125 135.515625 C 178.796875 131.355469 177.621094 125.78125 173.449219 123.070312 C 169.277344 120.355469 163.6875 121.527344 160.964844 125.6875 C 158.242188 129.847656 159.417969 135.417969 163.589844 138.132812 " fill-opacity="1" fill-rule="nonzero"/><path fill="#ffce6d" d="M 101.597656 170.707031 L 76.746094 154.542969 C 72.628906 161.164062 69.769531 168.476562 68.296875 176.089844 C 70.980469 178.085938 72.652344 181.339844 72.457031 184.917969 C 72.269531 188.375 70.328125 191.511719 67.351562 193.25 C 67.964844 200.800781 69.941406 208.355469 73.417969 215.570312 L 99.875 202.199219 L 101.597656 170.707031 " fill-opacity="1" fill-rule="nonzero"/><path fill="#ffce6d" d="M 71.144531 184.84375 C 71.414062 179.886719 67.601562 175.648438 62.628906 175.375 C 57.652344 175.105469 53.398438 178.90625 53.128906 183.867188 C 52.859375 188.824219 56.671875 193.066406 61.644531 193.335938 C 66.621094 193.605469 70.875 189.804688 71.144531 184.84375 " fill-opacity="1" fill-rule="nonzero"/><path fill="#61a6ab" d="M 131.347656 154.105469 L 132.964844 124.570312 C 125.320312 124.316406 117.550781 125.4375 110.023438 128.046875 C 109.632812 131.363281 107.640625 134.433594 104.4375 136.054688 C 101.230469 137.671875 97.566406 137.457031 94.652344 135.8125 C 88.09375 140.320312 82.59375 145.90625 78.277344 152.199219 L 103.128906 168.363281 L 131.347656 154.105469 " fill-opacity="1" fill-rule="nonzero"/><path fill="#61a6ab" d="M 103.839844 134.886719 C 108.285156 132.640625 110.0625 127.226562 107.808594 122.796875 C 105.558594 118.367188 100.128906 116.597656 95.683594 118.84375 C 91.242188 121.089844 89.464844 126.5 91.71875 130.929688 C 93.96875 135.359375 99.398438 137.128906 103.839844 134.886719 " fill-opacity="1" fill-rule="nonzero"/><path fill="#f6f6e9" d="M 130.441406 222.082031 L 128.824219 251.617188 C 136.472656 251.871094 144.242188 250.75 151.769531 248.140625 C 152.15625 244.824219 154.148438 241.753906 157.355469 240.132812 C 160.5625 238.511719 164.222656 238.726562 167.136719 240.375 C 173.695312 235.867188 179.199219 230.28125 183.511719 223.984375 L 158.660156 207.820312 L 130.441406 222.082031 " fill-opacity="1" fill-rule="nonzero"/><g clip-path="url(#ca84471b95)"><path fill="#f6f6e9" d="M 157.949219 241.300781 C 153.503906 243.546875 151.726562 248.960938 153.980469 253.390625 C 156.234375 257.820312 161.664062 259.589844 166.105469 257.34375 C 170.550781 255.097656 172.324219 249.6875 170.074219 245.257812 C 167.820312 240.828125 162.390625 239.054688 157.949219 241.300781 " fill-opacity="1" fill-rule="nonzero"/></g><g fill="#f6f6e9" fill-opacity="1"><g transform="translate(169.82535, 200.624972)"><g><path d="M 16.5 -16.96875 C 16.945312 -16.96875 17.398438 -16.765625 17.859375 -16.359375 C 18.328125 -15.960938 18.5625 -15.351562 18.5625 -14.53125 C 18.5625 -13.707031 18.269531 -12.632812 17.6875 -11.3125 C 17.113281 -10 16.320312 -8.664062 15.3125 -7.3125 C 14.300781 -5.957031 13.191406 -4.679688 11.984375 -3.484375 C 10.773438 -2.285156 9.46875 -1.304688 8.0625 -0.546875 C 6.664062 0.210938 5.394531 0.59375 4.25 0.59375 C 3.101562 0.59375 2.1875 0.234375 1.5 -0.484375 C 0.8125 -1.203125 0.46875 -2.203125 0.46875 -3.484375 C 0.46875 -4.765625 0.78125 -6.179688 1.40625 -7.734375 C 2.039062 -9.296875 2.851562 -10.675781 3.84375 -11.875 C 4.84375 -13.070312 5.921875 -14.144531 7.078125 -15.09375 C 9.492188 -17.039062 11.617188 -18.015625 13.453125 -18.015625 C 14.265625 -18.015625 14.878906 -17.8125 15.296875 -17.40625 C 15.441406 -17.269531 15.515625 -17.148438 15.515625 -17.046875 L 15.515625 -16.921875 C 15.722656 -16.953125 16.050781 -16.96875 16.5 -16.96875 Z M 14.25 -14 L 14.09375 -14 C 13.570312 -14 13.3125 -14.378906 13.3125 -15.140625 C 12.226562 -14.785156 11.09375 -14.160156 9.90625 -13.265625 C 8.71875 -12.378906 7.65625 -11.328125 6.71875 -10.109375 C 4.820312 -7.671875 3.859375 -5.613281 3.828125 -3.9375 C 3.828125 -3.101562 4.128906 -2.6875 4.734375 -2.6875 C 5.347656 -2.6875 6.253906 -3.085938 7.453125 -3.890625 C 8.660156 -4.691406 9.851562 -5.832031 11.03125 -7.3125 C 12.207031 -8.800781 13.085938 -10.09375 13.671875 -11.1875 C 14.265625 -12.28125 14.5625 -13.019531 14.5625 -13.40625 C 14.5625 -13.800781 14.457031 -14 14.25 -14 Z M 14.25 -14 "/></g></g></g><g fill="#f6f6e9" fill-opacity="1"><g transform="translate(190.719392, 200.624972)"><g><path d="M 19.84375 -33.421875 C 20.550781 -33.421875 21.175781 -33.207031 21.71875 -32.78125 C 22.257812 -32.351562 22.53125 -31.722656 22.53125 -30.890625 C 22.53125 -30.066406 22.066406 -28.765625 21.140625 -26.984375 C 20.222656 -25.210938 19.117188 -23.40625 17.828125 -21.5625 C 16.535156 -19.71875 15.078125 -17.753906 13.453125 -15.671875 C 10.867188 -12.378906 8.390625 -9.421875 6.015625 -6.796875 C 5.992188 -6.609375 5.925781 -6.273438 5.8125 -5.796875 C 5.707031 -5.316406 5.65625 -4.832031 5.65625 -4.34375 C 5.65625 -3.851562 5.878906 -3.410156 6.328125 -3.015625 C 6.785156 -2.617188 7.347656 -2.421875 8.015625 -2.421875 C 8.679688 -2.421875 9.394531 -2.65625 10.15625 -3.125 C 10.925781 -3.601562 11.59375 -4.132812 12.15625 -4.71875 C 13.632812 -6.25 14.550781 -7.015625 14.90625 -7.015625 C 15.269531 -7.015625 15.453125 -6.472656 15.453125 -5.390625 L 15.453125 -4.9375 C 15.453125 -4.363281 15.347656 -3.941406 15.140625 -3.671875 C 13.890625 -2.140625 12.484375 -1 10.921875 -0.25 C 9.367188 0.5 7.894531 0.875 6.5 0.875 C 5.101562 0.875 4.039062 0.445312 3.3125 -0.40625 C 2.582031 -1.257812 2.21875 -2.429688 2.21875 -3.921875 C 2.21875 -6.816406 2.992188 -10.21875 4.546875 -14.125 C 6.097656 -18.03125 7.847656 -21.359375 9.796875 -24.109375 C 14.171875 -30.316406 17.519531 -33.421875 19.84375 -33.421875 Z M 18.828125 -29.71875 C 18.828125 -29.9375 18.753906 -30.046875 18.609375 -30.046875 C 18.085938 -30.046875 16.722656 -28.5625 14.515625 -25.59375 C 12.304688 -22.632812 10.707031 -20.269531 9.71875 -18.5 C 8.726562 -16.726562 7.796875 -14.507812 6.921875 -11.84375 C 8.671875 -13.914062 11.09375 -17.148438 14.1875 -21.546875 C 17.28125 -25.953125 18.828125 -28.675781 18.828125 -29.71875 Z M 18.828125 -29.71875 "/></g></g></g><g fill="#f6f6e9" fill-opacity="1"><g transform="translate(206.67072, 200.624972)"><g><path d="M 19.84375 -33.421875 C 20.550781 -33.421875 21.175781 -33.207031 21.71875 -32.78125 C 22.257812 -32.351562 22.53125 -31.722656 22.53125 -30.890625 C 22.53125 -30.066406 22.066406 -28.765625 21.140625 -26.984375 C 20.222656 -25.210938 19.117188 -23.40625 17.828125 -21.5625 C 16.535156 -19.71875 15.078125 -17.753906 13.453125 -15.671875 C 10.867188 -12.378906 8.390625 -9.421875 6.015625 -6.796875 C 5.992188 -6.609375 5.925781 -6.273438 5.8125 -5.796875 C 5.707031 -5.316406 5.65625 -4.832031 5.65625 -4.34375 C 5.65625 -3.851562 5.878906 -3.410156 6.328125 -3.015625 C 6.785156 -2.617188 7.347656 -2.421875 8.015625 -2.421875 C 8.679688 -2.421875 9.394531 -2.65625 10.15625 -3.125 C 10.925781 -3.601562 11.59375 -4.132812 12.15625 -4.71875 C 13.632812 -6.25 14.550781 -7.015625 14.90625 -7.015625 C 15.269531 -7.015625 15.453125 -6.472656 15.453125 -5.390625 L 15.453125 -4.9375 C 15.453125 -4.363281 15.347656 -3.941406 15.140625 -3.671875 C 13.890625 -2.140625 12.484375 -1 10.921875 -0.25 C 9.367188 0.5 7.894531 0.875 6.5 0.875 C 5.101562 0.875 4.039062 0.445312 3.3125 -0.40625 C 2.582031 -1.257812 2.21875 -2.429688 2.21875 -3.921875 C 2.21875 -6.816406 2.992188 -10.21875 4.546875 -14.125 C 6.097656 -18.03125 7.847656 -21.359375 9.796875 -24.109375 C 14.171875 -30.316406 17.519531 -33.421875 19.84375 -33.421875 Z M 18.828125 -29.71875 C 18.828125 -29.9375 18.753906 -30.046875 18.609375 -30.046875 C 18.085938 -30.046875 16.722656 -28.5625 14.515625 -25.59375 C 12.304688 -22.632812 10.707031 -20.269531 9.71875 -18.5 C 8.726562 -16.726562 7.796875 -14.507812 6.921875 -11.84375 C 8.671875 -13.914062 11.09375 -17.148438 14.1875 -21.546875 C 17.28125 -25.953125 18.828125 -28.675781 18.828125 -29.71875 Z M 18.828125 -29.71875 "/></g></g></g><g fill="#f6f6e9" fill-opacity="1"><g transform="translate(222.622046, 200.624972)"><g><path d="M 18.359375 -16.921875 C 19.492188 -16.921875 20.0625 -16.535156 20.0625 -15.765625 C 20.0625 -15.347656 19.960938 -15.039062 19.765625 -14.84375 C 19.578125 -14.65625 19.164062 -14.015625 18.53125 -12.921875 C 17.90625 -11.828125 17.207031 -10.429688 16.4375 -8.734375 C 15.675781 -7.035156 15.179688 -5.585938 14.953125 -4.390625 C 14.910156 -4.234375 14.890625 -4.023438 14.890625 -3.765625 C 14.890625 -2.941406 15.113281 -2.53125 15.5625 -2.53125 C 16.007812 -2.53125 16.535156 -2.742188 17.140625 -3.171875 C 17.753906 -3.597656 18.296875 -4.050781 18.765625 -4.53125 C 19.242188 -5.007812 19.707031 -5.5 20.15625 -6 C 20.613281 -6.507812 20.882812 -6.800781 20.96875 -6.875 C 21.0625 -6.945312 21.195312 -6.984375 21.375 -6.984375 C 21.65625 -6.984375 21.820312 -6.769531 21.875 -6.34375 C 21.9375 -5.914062 21.96875 -5.46875 21.96875 -5 C 21.96875 -4.539062 21.925781 -4.222656 21.84375 -4.046875 C 21.40625 -3.203125 20.457031 -2.1875 19 -1 C 17.539062 0.1875 16.210938 0.78125 15.015625 0.78125 C 13.816406 0.78125 12.9375 0.414062 12.375 -0.3125 C 11.8125 -1.039062 11.53125 -1.84375 11.53125 -2.71875 C 11.53125 -3.601562 11.679688 -4.378906 11.984375 -5.046875 C 10.742188 -3.453125 9.328125 -2.097656 7.734375 -0.984375 C 6.140625 0.128906 4.835938 0.6875 3.828125 0.6875 C 2.816406 0.6875 1.992188 0.382812 1.359375 -0.21875 C 0.546875 -0.976562 0.140625 -2.03125 0.140625 -3.375 C 0.140625 -4.71875 0.4375 -6.066406 1.03125 -7.421875 C 1.632812 -8.785156 2.425781 -10.023438 3.40625 -11.140625 C 4.382812 -12.265625 5.460938 -13.285156 6.640625 -14.203125 C 9.097656 -16.128906 11.367188 -17.09375 13.453125 -17.09375 C 14.253906 -17.09375 14.90625 -16.957031 15.40625 -16.6875 C 15.90625 -16.425781 16.222656 -16.09375 16.359375 -15.6875 C 16.710938 -16.226562 17.007812 -16.566406 17.25 -16.703125 C 17.5 -16.847656 17.867188 -16.921875 18.359375 -16.921875 Z M 15.40625 -14.453125 C 12.863281 -14.453125 10.238281 -13.039062 7.53125 -10.21875 C 6.5625 -9.207031 5.671875 -7.992188 4.859375 -6.578125 C 4.054688 -5.171875 3.65625 -4.207031 3.65625 -3.6875 C 3.65625 -3.175781 3.800781 -2.921875 4.09375 -2.921875 C 4.507812 -2.921875 5.664062 -3.738281 7.5625 -5.375 C 9.46875 -7.019531 10.734375 -8.226562 11.359375 -9 C 12.035156 -9.851562 13.382812 -11.671875 15.40625 -14.453125 Z M 15.40625 -14.453125 "/></g></g></g><g fill="#f6f6e9" fill-opacity="1"><g transform="translate(245.386305, 200.624972)"><g><path d="M 19.703125 -31.765625 C 16.566406 -27.066406 13.515625 -22.148438 10.546875 -17.015625 C 11.234375 -17.367188 12.003906 -17.625 12.859375 -17.78125 C 13.710938 -17.9375 14.3125 -18.015625 14.65625 -18.015625 C 15.007812 -18.015625 15.3125 -18 15.5625 -17.96875 C 15.8125 -17.945312 16.132812 -17.863281 16.53125 -17.71875 C 16.925781 -17.582031 17.265625 -17.390625 17.546875 -17.140625 C 18.222656 -16.535156 18.5625 -15.675781 18.5625 -14.5625 C 18.5625 -13.445312 18.257812 -12.222656 17.65625 -10.890625 C 17.0625 -9.566406 16.25 -8.234375 15.21875 -6.890625 C 14.1875 -5.554688 13.054688 -4.316406 11.828125 -3.171875 C 10.609375 -2.023438 9.289062 -1.085938 7.875 -0.359375 C 6.46875 0.367188 5.15625 0.734375 3.9375 0.734375 C 3.375 0.734375 2.722656 0.367188 1.984375 -0.359375 C 1.253906 -1.085938 0.890625 -2.046875 0.890625 -3.234375 C 0.890625 -4.421875 1.398438 -6.257812 2.421875 -8.75 C 3.453125 -11.238281 4.695312 -13.769531 6.15625 -16.34375 C 7.613281 -18.925781 9.101562 -21.441406 10.625 -23.890625 C 12.144531 -26.335938 13.441406 -28.335938 14.515625 -29.890625 C 15.585938 -31.453125 16.238281 -32.351562 16.46875 -32.59375 C 16.707031 -32.832031 17.140625 -33.03125 17.765625 -33.1875 C 18.398438 -33.351562 18.945312 -33.429688 19.40625 -33.421875 C 19.875 -33.421875 20.109375 -33.210938 20.109375 -32.796875 C 20.109375 -32.523438 19.972656 -32.179688 19.703125 -31.765625 Z M 13.6875 -10.390625 C 14.300781 -11.460938 14.609375 -12.4375 14.609375 -13.3125 C 14.609375 -14.1875 14.328125 -14.625 13.765625 -14.625 C 13.210938 -14.625 12.359375 -14.378906 11.203125 -13.890625 C 10.054688 -13.410156 9.398438 -13.171875 9.234375 -13.171875 C 9.078125 -13.171875 8.863281 -13.304688 8.59375 -13.578125 C 5.695312 -8.367188 4.25 -5.046875 4.25 -3.609375 C 4.25 -2.941406 4.460938 -2.609375 4.890625 -2.609375 C 5.921875 -2.609375 7.398438 -3.460938 9.328125 -5.171875 C 11.253906 -6.890625 12.707031 -8.628906 13.6875 -10.390625 Z M 13.6875 -10.390625 "/></g></g></g><g fill="#f6f6e9" fill-opacity="1"><g transform="translate(261.438766, 213.749986)"><g><path d="M 1.703125 0.71875 L 1.484375 0.765625 C 1.304688 0.765625 0.941406 0.515625 0.390625 0.015625 C -0.148438 -0.472656 -0.484375 -0.773438 -0.609375 -0.890625 C -0.734375 -1.003906 -0.882812 -1.125 -1.0625 -1.25 C -1.238281 -1.375 -1.359375 -1.460938 -1.421875 -1.515625 C -1.484375 -1.566406 -1.5625 -1.640625 -1.65625 -1.734375 C -1.757812 -1.835938 -1.832031 -1.921875 -1.875 -1.984375 C -1.914062 -2.046875 -1.960938 -2.117188 -2.015625 -2.203125 C -2.085938 -2.347656 -2.125 -2.566406 -2.125 -2.859375 C -2.125 -3.148438 -2.035156 -3.570312 -1.859375 -4.125 C -1.609375 -4.988281 0.976562 -7.421875 5.90625 -11.421875 C 10.832031 -15.429688 17.972656 -21.070312 27.328125 -28.34375 C 27.679688 -29.707031 28.117188 -31.375 28.640625 -33.34375 C 29.171875 -35.3125 29.59375 -36.894531 29.90625 -38.09375 C 30.226562 -39.300781 30.554688 -40.550781 30.890625 -41.84375 C 31.515625 -44.289062 31.828125 -45.691406 31.828125 -46.046875 C 31.828125 -46.398438 31.710938 -46.578125 31.484375 -46.578125 C 30.554688 -46.578125 28.46875 -45.128906 25.21875 -42.234375 C 21.96875 -39.335938 20.34375 -37.445312 20.34375 -36.5625 C 20.34375 -35.988281 20.128906 -35.703125 19.703125 -35.703125 C 19.421875 -35.703125 19.007812 -36 18.46875 -36.59375 C 17.925781 -37.1875 17.625 -37.726562 17.5625 -38.21875 C 17.5 -38.707031 17.429688 -39.128906 17.359375 -39.484375 C 17.234375 -40.265625 17.171875 -40.894531 17.171875 -41.375 C 17.171875 -42.664062 18.378906 -44.441406 20.796875 -46.703125 C 23.222656 -48.960938 25.894531 -50.953125 28.8125 -52.671875 C 31.738281 -54.390625 33.859375 -55.25 35.171875 -55.25 C 36.484375 -55.25 37.535156 -54.789062 38.328125 -53.875 C 39.128906 -52.96875 39.53125 -51.65625 39.53125 -49.9375 C 39.53125 -48.226562 38.441406 -43.351562 36.265625 -35.3125 C 50.441406 -46.207031 57.90625 -51.875 58.65625 -52.3125 C 59.414062 -52.757812 60.550781 -52.984375 62.0625 -52.984375 C 63.582031 -52.984375 65.128906 -52.675781 66.703125 -52.0625 C 67.179688 -51.863281 67.421875 -51.601562 67.421875 -51.28125 C 67.421875 -50.96875 67.320312 -50.671875 67.125 -50.390625 C 66.9375 -50.117188 66.597656 -49.785156 66.109375 -49.390625 C 65.617188 -49.003906 64.625 -48.273438 63.125 -47.203125 C 61.632812 -46.128906 59.84375 -44.820312 57.75 -43.28125 C 52.875 -39.6875 44.78125 -33.484375 33.46875 -24.671875 C 31.039062 -15.347656 29.828125 -9.320312 29.828125 -6.59375 C 29.828125 -5.882812 29.90625 -5.53125 30.0625 -5.53125 C 30.226562 -5.53125 30.453125 -5.628906 30.734375 -5.828125 C 32.222656 -6.710938 34.664062 -8.640625 38.0625 -11.609375 C 41.457031 -14.578125 43.488281 -16.457031 44.15625 -17.25 C 44.832031 -18.050781 45.296875 -18.441406 45.546875 -18.421875 C 45.929688 -18.421875 46.125 -17.960938 46.125 -17.046875 L 46.078125 -16.40625 C 46.078125 -16.382812 46.195312 -16.023438 46.4375 -15.328125 C 46.675781 -14.628906 46.796875 -13.816406 46.796875 -12.890625 C 46.796875 -11.972656 46.617188 -11.242188 46.265625 -10.703125 C 45.910156 -10.160156 45.382812 -9.484375 44.6875 -8.671875 C 44 -7.867188 43.035156 -6.878906 41.796875 -5.703125 C 40.554688 -4.523438 39.242188 -3.429688 37.859375 -2.421875 C 34.472656 0.078125 31.273438 1.328125 28.265625 1.328125 C 26.847656 1.328125 25.570312 0.785156 24.4375 -0.296875 C 23.300781 -1.390625 22.734375 -3.128906 22.734375 -5.515625 C 22.734375 -7.898438 23.390625 -11.910156 24.703125 -17.546875 C 10.253906 -5.421875 2.941406 0.675781 2.765625 0.75 C 2.585938 0.832031 2.425781 0.875 2.28125 0.875 Z M 1.703125 0.71875 "/></g></g></g></svg>